<?xml version="1.0" standalone="no"?>
<!DOCTYPE svg PUBLIC "-//W3C//DTD SVG 20010904//EN"
 "http://www.w3.org/TR/2001/REC-SVG-20010904/DTD/svg10.dtd">
<svg version="1.0" xmlns="http://www.w3.org/2000/svg"
 width="300.000000pt" height="300.000000pt" viewBox="0 0 300.000000 300.000000"
 preserveAspectRatio="xMidYMid meet">

<g transform="translate(0.000000,300.000000) scale(0.100000,-0.100000)"
fill="#000000" stroke="none">
<path d="M0 1500 l0 -1500 1500 0 1500 0 0 1500 0 1500 -1500 0 -1500 0 0
-1500z m1245 848 l245 -141 -2 -289 -3 -289 -243 -141 -244 -140 -151 88 c-84
48 -196 113 -249 143 l-98 56 0 285 1 285 247 142 c136 79 248 143 249 143 2
0 113 -64 248 -142z"/>
<path d="M805 2304 c-99 -58 -184 -109 -188 -113 -8 -8 141 -101 160 -101 4 0
55 27 112 60 57 34 111 58 119 55 8 -3 57 -30 109 -61 52 -30 97 -54 101 -52
35 15 162 91 162 96 0 9 -373 222 -386 221 -5 0 -90 -47 -189 -105z"/>
<path d="M898 2078 l-88 -51 0 -89 0 -89 48 28 c26 15 67 39 92 53 l45 26 3
87 c1 48 -1 87 -5 87 -4 0 -47 -24 -95 -52z"/>
<path d="M1335 2081 l-80 -48 -3 -131 -3 -131 -109 -63 -110 -62 0 -98 c0 -54
2 -98 6 -98 3 0 93 50 200 112 l194 112 0 228 c0 125 -3 228 -7 228 -5 -1 -44
-22 -88 -49z"/>
<path d="M938 1847 c-48 -28 -85 -54 -82 -58 6 -11 130 -79 144 -79 13 0 168
88 175 100 5 8 -100 72 -135 83 -8 3 -54 -18 -102 -46z"/>
</g>
</svg>
